<svg xmlns="http://www.w3.org/2000/svg">
	<symbol viewBox="0 0 20 20" fill="none" id="search">
		<path d="M19 18.9999L14.65 14.6499M9 17C13.4183 17 17 13.4183 17 9C17 4.58172 13.4183 1 9 1C4.58172 1 1 4.58172 1 9C1 13.4183 4.58172 17 9 17Z" stroke="currentColor" stroke-width="2" stroke-linecap="round" stroke-linejoin="round"/>
	</symbol>

	<symbol viewBox="0 0 22 22" fill="none" id="phone">
		<path fill-rule="evenodd" clip-rule="evenodd" d="M20.8881 15.9919V18.9919C20.8904 19.555 20.6552 20.093 20.2402 20.4737C19.8252 20.8544 19.269 21.0426 18.7081 20.9919C15.631 20.6575 12.6751 19.606 10.0781 17.9219C7.66195 16.3865 5.61346 14.338 4.07812 11.9219C2.3881 9.31308 1.33637 6.34287 1.00812 3.25188C0.957597 2.69275 1.1444 2.13813 1.52289 1.7235C1.90138 1.30887 2.43672 1.0724 2.99812 1.07188H5.99812C7.00199 1.062 7.85762 1.79784 7.99812 2.79188C8.12475 3.75194 8.35957 4.6946 8.69812 5.60188C8.97286 6.33275 8.79714 7.15668 8.24812 7.71188L6.97812 8.98188C8.40168 11.4854 10.4746 13.5583 12.9781 14.9819L14.2481 13.7119C14.8033 13.1629 15.6272 12.9871 16.3581 13.2619C17.2654 13.6004 18.2081 13.8353 19.1681 13.9619C20.1737 14.1037 20.9133 14.9767 20.8881 15.9919Z" stroke="currentColor" stroke-width="2" stroke-linecap="round" stroke-linejoin="round"/>
	</symbol>

	<symbol viewBox="0 0 15 8" fill="none" id="shevron-up">
		<path d="M1.5 7L7.5 1L13.5 7" stroke="currentColor" stroke-width="2" stroke-linecap="round" stroke-linejoin="round"/>
	</symbol>

	<symbol viewBox="0 0 10 6" fill="none" id="shevron-down">
		<path d="M1 1L5 5L9 1" stroke="currentColor" stroke-width="1.5" stroke-linecap="round" stroke-linejoin="round"/>
	</symbol>

	<symbol viewBox="0 0 33 19" fill="none" id="shevron-down-lighter">
		<path d="M1.5 2L16.5 17L31.5 2" stroke="currentColor" stroke-width="3" stroke-linecap="round" stroke-linejoin="round"/>
	</symbol>

	<symbol viewBox="0 0 6 9" fill="none" id="shevron-left">
		<path fill-rule="evenodd" clip-rule="evenodd" d="M5.35355 8.85355C5.15829 9.04882 4.84171 9.04882 4.64645 8.85355L0.646447 4.85355C0.451185 4.65829 0.451185 4.34171 0.646447 4.14645L4.64645 0.146447C4.84171 -0.0488153 5.15829 -0.0488153 5.35355 0.146447C5.54882 0.34171 5.54882 0.658291 5.35355 0.853553L1.70711 4.5L5.35355 8.14645C5.54882 8.34171 5.54882 8.65829 5.35355 8.85355Z" fill="currentColor"/>
	</symbol>

	<symbol viewBox="0 0 6 11" fill="none" id="shevron-left-bolder">
		<path d="M5 9.5L1 5.5L5 1.5" stroke="currentColor" stroke-width="2" stroke-linejoin="round"/>
	</symbol>

	<symbol viewBox="0 0 6 9" fill="none" id="shevron-right">
		<path d="M1 8.5L5 4.5L1 0.5" stroke="currentColor" stroke-linecap="round" stroke-linejoin="round"/>
	</symbol>

	<symbol viewBox="0 0 8 15" fill="none" id="shevron-right-bolder">
		<path d="M1 13.5L7 7.5L1 1.5" stroke="currentColor" stroke-width="2" stroke-linejoin="round"/>
	</symbol>

	<symbol viewBox="0 0 6 10" fill="none" id="shevron-right-bold">
		<path d="M1 9L5 5L1 1" stroke="currentColor" stroke-width="2" stroke-linejoin="round"/>
	</symbol>

	<symbol viewBox="0 0 29 29" fill="none" id="advantages-layers">
		<path d="M2 20.75L14.5 27L27 20.75M2 14.5L14.5 20.75L27 14.5M14.5 2L2 8.25L14.5 14.5L27 8.25L14.5 2Z" stroke="currentColor" stroke-width="2.5" stroke-linecap="round" stroke-linejoin="round"/>
	</symbol>

	<symbol viewBox="0 0 24 29" fill="none" id="advantages-flag">
		<path d="M2 18.25C2 18.25 3.25 17 7 17C10.75 17 13.25 19.5 17 19.5C20.75 19.5 22 18.25 22 18.25V3.25C22 3.25 20.75 4.5 17 4.5C13.25 4.5 10.75 2 7 2C3.25 2 2 3.25 2 3.25V18.25ZM2 18.25V27" stroke="currentColor" stroke-width="2.5" stroke-linecap="round" stroke-linejoin="round"/>
	</symbol>

	<symbol viewBox="0 0 27 29" fill="none" id="advantages-box">
		<path d="M2.37165 7.71164L13.6116 13.3316M13.6116 13.3316L24.8515 7.71164M13.6116 13.3316L13.6116 26.9867M14.645 2.24261L23.9342 6.88721C24.7234 7.27937 25.2226 8.08442 25.2231 8.96567V20.0314C25.2226 20.9127 24.7234 21.7177 23.9342 22.1099L14.645 26.7545C13.9908 27.0818 13.2207 27.0818 12.5665 26.7545L3.27732 22.1099C2.48889 21.7126 1.99391 20.9027 2.00006 20.0198V8.96567C2.00052 8.08442 2.49975 7.27937 3.28893 6.88721L12.5781 2.24261C13.2291 1.91913 13.994 1.91913 14.645 2.24261Z" stroke="currentColor" stroke-width="2.5" stroke-linecap="round" stroke-linejoin="round"/>
	</symbol>

	<symbol viewBox="0 0 26 28" fill="none" id="advantages-lightning">
		<path fill-rule="evenodd" clip-rule="evenodd" d="M14.5 1L2 16H13.25L12 26L24.5 11H13.25L14.5 1V1Z" stroke="currentColor" stroke-width="2.5" stroke-linecap="round" stroke-linejoin="round"/>
	</symbol>

	<symbol viewBox="0 0 14 14" fill="none" id="plus">
		<path d="M7 0V14" stroke="currentColor" stroke-width="2" stroke-linejoin="round"/>
		<path d="M0 7H14" stroke="currentColor" stroke-width="2" stroke-linejoin="round"/>
	</symbol>

	<symbol viewBox="0 0 20 12" fill="none" id="vk">
		<path d="M14.7232 5.99024C15.0622 6.15892 15.3905 6.35395 15.7057 6.5716C16.2745 6.9647 16.79 7.41876 17.257 7.92826C17.8796 8.60756 18.3904 9.36313 18.792 10.1929C19.0459 10.7176 19.2469 11.2621 19.406 11.8227C19.4183 11.8657 19.4141 11.882 19.3627 11.882C18.2883 11.8806 17.2138 11.8805 16.1394 11.8824C16.0823 11.8825 16.0724 11.8527 16.0589 11.8112C15.8233 11.0885 15.4857 10.4181 15.0236 9.8136C14.3223 8.8961 13.4393 8.23032 12.3305 7.88109C12.0196 7.78316 11.7012 7.72096 11.3781 7.68096C11.3398 7.67627 11.3283 7.68827 11.3316 7.72413C11.3332 7.74233 11.3319 7.76082 11.3319 7.7793C11.3319 9.11706 11.3319 10.455 11.3319 11.7927C11.3319 11.8809 11.3319 11.8806 11.2426 11.8809C10.8133 11.8828 10.3842 11.8755 9.95615 11.8414C8.3329 11.7119 6.80208 11.2832 5.4086 10.4181C4.7523 10.0107 4.16102 9.52271 3.63367 8.95734C2.60926 7.85944 1.90268 6.57519 1.41638 5.16253C1.15421 4.40089 0.965066 3.62077 0.833916 2.82603C0.745059 2.28687 0.68155 1.74523 0.64091 1.20041C0.616113 0.868142 0.605092 0.535322 0.588698 0.20264C0.585529 0.138642 0.597515 0.117539 0.667636 0.117676C1.69163 0.120297 2.71562 0.119883 3.73947 0.118366C3.79292 0.118228 3.81262 0.12609 3.81372 0.18733C3.82227 0.665113 3.85354 1.14152 3.90616 1.61668C4.00094 2.47321 4.16915 3.31361 4.4444 4.13111C4.68383 4.84226 4.99917 5.51659 5.42403 6.13685C5.9186 6.85891 6.52366 7.46413 7.29444 7.89116C7.57148 8.04467 7.8623 8.16577 8.16854 8.24922C8.2293 8.26577 8.24266 8.25419 8.24238 8.1935C8.24059 7.6993 8.24142 7.20511 8.24142 6.71091C8.24142 4.54558 8.24142 2.38025 8.24156 0.214916C8.24156 0.102229 8.23067 0.120021 8.3362 0.119883C9.30743 0.119332 10.2785 0.120297 11.2497 0.11809C11.3149 0.117952 11.3334 0.132021 11.3332 0.200019C11.331 1.6964 11.3316 3.19292 11.3316 4.6893C11.3316 4.77633 11.3313 4.77385 11.4195 4.76047C12.0803 4.65937 12.6507 4.35841 13.1717 3.95525C13.9725 3.33567 14.58 2.55445 15.0572 1.66688C15.3139 1.18951 15.5176 0.690491 15.663 0.16802C15.673 0.131883 15.6881 0.118504 15.7281 0.118642C16.7085 0.120021 17.6888 0.119745 18.6692 0.119883C18.6826 0.119883 18.6961 0.122366 18.7254 0.125262C18.212 2.6459 16.8285 4.56047 14.7232 5.99024Z" fill="currentColor"/>
	</symbol>

	<symbol viewBox="0 0 22 22" fill="none" id="email">
		<path d="M15.2857 11C15.2857 13.3669 13.3669 15.2857 11 15.2857C8.63307 15.2857 6.71429 13.3669 6.71429 11C6.71429 8.63307 8.63307 6.71429 11 6.71429C13.3669 6.71429 15.2857 8.63307 15.2857 11ZM15.2857 11V12.4286C15.2857 14.0065 16.5649 15.2857 18.1429 15.2857C19.1565 15.2857 20.0469 14.7579 20.554 13.962C20.8364 13.519 21 12.9929 21 12.4286V11C21 7.85859 19.5515 5.05551 17.2859 3.22222M11 1C5.47715 1 1 5.47715 1 11C1 16.5228 5.47715 21 11 21C13.1246 21 15.0945 20.3374 16.7143 19.2076" stroke="currentColor" stroke-width="2" stroke-linecap="round" stroke-linejoin="round"/>
	</symbol>

	<symbol viewBox="0 0 16 16" fill="none" id="close">
		<path d="M0 14.6096L14.5993 0L15.9907 1.39041L1.39139 16L0 14.6096Z" fill="currentColor"/>
		<path d="M15.9912 14.6096L1.39191 0L0.0005182 1.39041L14.5998 16L15.9912 14.6096Z" fill="currentColor"/>
	</symbol>

	<symbol viewBox="0 0 36 36" fill="none" id="close-bolder">
		<path fill-rule="evenodd" clip-rule="evenodd" d="M1.00561 30.1386C-0.335202 31.4794 -0.335203 33.6533 1.00561 34.9941C2.34642 36.3349 4.5203 36.3349 5.86111 34.9941L17.9998 22.8554L30.1389 34.9945C31.4797 36.3353 33.6536 36.3353 34.9944 34.9945C36.3352 33.6537 36.3352 31.4799 34.9944 30.139L22.8553 17.9999L34.9941 5.8611C36.3349 4.52029 36.3349 2.34642 34.9941 1.00561C33.6533 -0.335202 31.4794 -0.335203 30.1386 1.00561L17.9998 13.1444L5.86137 1.00607C4.52056 -0.334739 2.34668 -0.33474 1.00587 1.00607C-0.334941 2.34688 -0.334942 4.52075 1.00587 5.86156L13.1443 17.9999L1.00561 30.1386Z" fill="currentColor"/>
	</symbol>

	<symbol viewBox="0 0 42 36" fill="none" id="chat">
		<path d="M15.9039 18.5063H15.9156" stroke="currentColor" stroke-width="3" stroke-linecap="round" stroke-linejoin="round"/>
		<path d="M22.2047 18.5063H22.2164" stroke="currentColor" stroke-width="3" stroke-linecap="round" stroke-linejoin="round"/>
		<path d="M28.5035 18.5063H28.5152" stroke="currentColor" stroke-width="3" stroke-linecap="round" stroke-linejoin="round"/>
		<path fill-rule="evenodd" clip-rule="evenodd" d="M35.1395 7.01496C29.0809 0.953998 19.2365 0.953998 13.178 7.01496L13.1778 7.01517C8.4327 11.7593 7.40301 18.7913 10.0656 24.5452C10.0727 24.5606 10.0795 24.5761 10.0858 24.5918C10.2175 24.9189 10.2175 25.3018 10.2106 25.5456C10.2023 25.8395 10.1696 26.1821 10.1282 26.5374C10.0891 26.8728 10.0394 27.2427 9.98858 27.6214L9.97811 27.6994C9.92313 28.109 9.86687 28.5315 9.81772 28.9551C9.71832 29.8118 9.65412 30.6251 9.68268 31.2832C9.69692 31.6113 9.73313 31.8664 9.78398 32.0515C9.8277 32.2105 9.86933 32.2706 9.87691 32.2811C9.88739 32.2886 9.94744 32.3302 10.1065 32.3739C10.2916 32.4247 10.5467 32.4608 10.8749 32.475C11.5329 32.5035 12.3462 32.4394 13.2028 32.3401C13.6263 32.2909 14.0488 32.2347 14.4584 32.1798L14.535 32.1695C14.9141 32.1187 15.2845 32.069 15.6203 32.0299C15.9755 31.9886 16.3181 31.9559 16.6119 31.9477C16.8557 31.9408 17.2385 31.9409 17.5656 32.0726C17.5812 32.0789 17.5966 32.0856 17.6119 32.0926C23.3669 34.7542 30.3962 33.7258 35.1395 28.9803L35.1396 28.9801C41.1989 22.9201 41.211 13.0857 35.1397 7.01514L35.1395 7.01496ZM36.554 5.60102C29.7143 -1.24136 18.6032 -1.24136 11.7635 5.60102C6.42922 10.9342 5.25892 18.8239 8.20934 25.2954C8.21124 25.3244 8.21433 25.3854 8.2114 25.4891C8.20563 25.6931 8.18126 25.9658 8.14164 26.3059C8.10468 26.6231 8.05725 26.9764 8.00561 27.3609L7.99589 27.4333C7.94101 27.8422 7.88252 28.281 7.83105 28.7246C7.72923 29.6021 7.64879 30.5458 7.68456 31.3699C7.70248 31.7828 7.75067 32.2001 7.8555 32.5815C7.95828 32.9555 8.13542 33.3685 8.46257 33.6957L8.46304 33.6962C8.79027 34.023 9.20326 34.1999 9.57705 34.3025C9.95832 34.4072 10.3755 34.4553 10.7883 34.4732C11.6123 34.5089 12.5558 34.4285 13.4331 34.3267C13.8766 34.2753 14.3154 34.2169 14.7242 34.1621L14.7953 34.1525C15.1802 34.1009 15.5339 34.0535 15.8514 34.0165C16.1915 33.9769 16.4641 33.9526 16.6681 33.9469C16.7719 33.944 16.8329 33.9471 16.8618 33.949C23.3339 36.8981 31.2213 35.7294 36.554 30.3941C43.393 23.5543 43.4074 12.4538 36.554 5.60102ZM12.4707 6.30799L11.7635 5.60102L12.4707 6.30799Z" fill="currentColor"/>
		<path opacity="0.2" fill-rule="evenodd" clip-rule="evenodd" d="M28.2199 29.6872C23.1696 34.7399 15.6871 35.8315 9.56528 33.0003C8.66153 32.6364 2.81212 34.2564 1.5429 32.9886C0.273669 31.7192 1.89509 25.869 1.53127 24.9652C-1.30124 18.8441 -0.208105 11.359 4.84388 6.30799C11.293 -0.14368 21.7708 -0.14368 28.2199 6.30799C34.6824 12.7696 34.6691 23.2372 28.2199 29.6872Z" fill="currentColor"/>
	</symbol>

	<symbol viewBox="0 0 20 20" fill="none" id="star">
		<path d="M10 0L13.09 6.26L20 7.27L15 12.14L16.18 19.02L10 15.77L3.82 19.02L5 12.14L0 7.27L6.91 6.26L10 0Z" fill="currentColor"/>
	</symbol>

	<symbol viewBox="0 0 22 14" fill="none" id="russia">
		<rect y="0.5" width="22" height="4" fill="#F6F6F6"/>
		<rect y="4.5" width="22" height="5" fill="#004DF6"/>
		<rect y="9.5" width="22" height="4" fill="#F71801"/>
	</symbol>

	<symbol viewBox="0 0 13 10" fill="none" id="check">
		<path fill-rule="evenodd" clip-rule="evenodd" d="M12.687 0.273304C13.0883 0.6527 13.1061 1.28562 12.7267 1.68696L5.1642 9.68696C4.97531 9.88678 4.71247 10 4.4375 10C4.16253 10 3.8997 9.88678 3.7108 9.68696L0.273304 6.0506C-0.106092 5.64925 -0.0882987 5.01634 0.313046 4.63694C0.71439 4.25755 1.3473 4.27534 1.7267 4.67668L4.4375 7.54431L11.2733 0.313046C11.6527 -0.0882987 12.2856 -0.106092 12.687 0.273304Z" fill="currentColor"/>
	</symbol>

	<symbol viewBox="0 0 16 17" fill="none" id="clip">
		<path fill-rule="evenodd" clip-rule="evenodd" d="M12.3069 2.38345C11.4623 1.53885 10.0929 1.53885 9.24833 2.38345L2.56002 9.07177C1.14666 10.4851 1.14666 12.7766 2.56002 14.19C3.97337 15.6033 6.26487 15.6033 7.67823 14.19L14.3665 7.50167C14.6594 7.20877 15.1343 7.20877 15.4272 7.50167C15.7201 7.79456 15.7201 8.26943 15.4272 8.56232L8.73889 15.2506C6.73975 17.2498 3.4985 17.2498 1.49936 15.2506C-0.499785 13.2515 -0.499785 10.0103 1.49936 8.01111L8.18768 1.32279C9.61807 -0.107598 11.9372 -0.107598 13.3676 1.32279C14.798 2.75319 14.798 5.07231 13.3676 6.5027L6.67199 13.191C5.81034 14.0527 4.41334 14.0527 3.5517 13.191C2.69006 12.3294 2.69006 10.9324 3.5517 10.0707L9.73089 3.89883C10.024 3.60611 10.4988 3.60639 10.7915 3.89946C11.0843 4.19252 11.084 4.66739 10.7909 4.96012L4.61236 11.1314C4.33651 11.4073 4.33651 11.8545 4.61236 12.1304C4.88822 12.4062 5.33547 12.4062 5.61133 12.1304L12.3069 5.44204C13.1515 4.59744 13.1515 3.22806 12.3069 2.38345Z" fill="currentColor"/>
	</symbol>

	<symbol viewBox="0 0 15 16" fill="none" id="date">
		<path d="M10.75 0.5V3.5M4.75 0.5V3.5M1 6.5H14.5M2.5 15.5H13C13.8284 15.5 14.5 14.8284 14.5 14V3.5C14.5 2.67157 13.8284 2 13 2H2.5C1.67157 2 1 2.67157 1 3.5V14C1 14.8284 1.67157 15.5 2.5 15.5Z" stroke="currentColor" stroke-linecap="round" stroke-linejoin="round"/>
	</symbol>

	<svg viewBox="0 0 25 24" fill="none" id="question">
		<path d="M9.58984 8.99999C10.0753 7.62004 11.4852 6.7914 12.927 7.0387C14.3688 7.28601 15.422 8.53714 15.4198 9.99999C15.4198 12 12.4198 13 12.4198 13" stroke="white" stroke-width="2" stroke-linecap="round" stroke-linejoin="round"/>
		<path fill-rule="evenodd" clip-rule="evenodd" d="M12.5 22C18.0228 22 22.5 17.5228 22.5 12C22.5 6.47715 18.0228 2 12.5 2C6.97715 2 2.5 6.47715 2.5 12C2.5 17.5228 6.97715 22 12.5 22Z" stroke="white" stroke-width="2" stroke-linecap="round" stroke-linejoin="round"/>
		<circle cx="12.5" cy="17" r="1" fill="currentColor"/>
	</svg>

</svg>
